<svg width="16" height="17" viewBox="0 0 16 17" fill="none" xmlns="http://www.w3.org/2000/svg">
<path fill-rule="evenodd" clip-rule="evenodd" d="M1.33191 10.369V14.667C1.33191 14.943 1.55591 15.167 1.83191 15.167H2.90791C3.02632 15.167 3.1409 15.125 3.23124 15.0485C3.32158 14.9719 3.38182 14.8658 3.40124 14.749L3.66524 13.167H12.3319L12.5952 14.749C12.6147 14.8658 12.6749 14.9719 12.7652 15.0485C12.8556 15.125 12.9702 15.167 13.0886 15.167H14.1652C14.2979 15.167 14.425 15.1143 14.5188 15.0205C14.6126 14.9268 14.6652 14.7996 14.6652 14.667V10.369C14.6653 9.58527 14.4333 8.81908 13.9986 8.16699L13.4786 7.38699C13.4322 7.31755 13.3925 7.24389 13.3599 7.16699H14.0226C14.1155 7.16699 14.2065 7.1411 14.2856 7.09223C14.3646 7.04336 14.4284 6.97345 14.4699 6.89033L14.6366 6.55699C14.6746 6.48081 14.6926 6.39618 14.6887 6.31113C14.6849 6.22607 14.6594 6.1434 14.6147 6.07095C14.5699 5.99851 14.5074 5.93869 14.4331 5.89716C14.3588 5.85563 14.2751 5.83378 14.1899 5.83366H13.0652L12.8586 4.80299C12.7957 4.4891 12.6438 4.19995 12.4209 3.97012C12.198 3.74029 11.9137 3.57951 11.6019 3.50699C10.6272 3.28033 9.42591 3.16699 7.99858 3.16699C6.57058 3.16699 5.36991 3.28033 4.39524 3.50699C4.08331 3.5794 3.79884 3.74013 3.57586 3.96997C3.35288 4.1998 3.20084 4.48901 3.13791 4.80299L2.93124 5.83366H1.80791C1.72277 5.83378 1.63906 5.85563 1.56473 5.89716C1.4904 5.93869 1.4279 5.99851 1.38317 6.07095C1.33843 6.1434 1.31294 6.22607 1.3091 6.31113C1.30526 6.39618 1.32321 6.48081 1.36124 6.55699L1.52791 6.89033C1.56936 6.97335 1.63309 7.0432 1.71197 7.09206C1.79086 7.14092 1.88179 7.16687 1.97458 7.16699H2.63791C2.60533 7.24388 2.5656 7.31754 2.51924 7.38699L1.99858 8.16699C1.56391 8.81899 1.33191 9.58499 1.33191 10.369ZM11.9726 7.16966C12.0185 7.40024 12.0947 7.62373 12.1992 7.83433H3.79791C3.90258 7.62433 3.97858 7.40099 4.02458 7.16966L4.44591 5.06499C4.45835 5.00207 4.48867 4.94407 4.53326 4.89795C4.57784 4.85183 4.63478 4.81955 4.69724 4.80499C5.56258 4.60499 6.66524 4.50033 7.99858 4.50033C9.33191 4.50033 10.4346 4.60433 11.2999 4.80566C11.3624 4.82006 11.4194 4.85219 11.4641 4.89818C11.5088 4.94418 11.5393 5.0021 11.5519 5.06499L11.9726 7.16966ZM3.66524 11.167C3.93046 11.167 4.18481 11.0616 4.37235 10.8741C4.55989 10.6866 4.66524 10.4322 4.66524 10.167C4.66524 9.90178 4.55989 9.64742 4.37235 9.45989C4.18481 9.27235 3.93046 9.16699 3.66524 9.16699C3.40003 9.16699 3.14567 9.27235 2.95814 9.45989C2.7706 9.64742 2.66524 9.90178 2.66524 10.167C2.66524 10.4322 2.7706 10.6866 2.95814 10.8741C3.14567 11.0616 3.40003 11.167 3.66524 11.167ZM13.3319 10.167C13.3319 10.4322 13.2266 10.6866 13.039 10.8741C12.8515 11.0616 12.5971 11.167 12.3319 11.167C12.0667 11.167 11.8123 11.0616 11.6248 10.8741C11.4373 10.6866 11.3319 10.4322 11.3319 10.167C11.3319 9.90178 11.4373 9.64742 11.6248 9.45989C11.8123 9.27235 12.0667 9.16699 12.3319 9.16699C12.5971 9.16699 12.8515 9.27235 13.039 9.45989C13.2266 9.64742 13.3319 9.90178 13.3319 10.167Z" fill="white"/>
</svg>
