<svg width="192" height="106" viewBox="0 0 192 106" fill="none" xmlns="http://www.w3.org/2000/svg">
<path d="M191.5 0H110C98 0 92.5 8 87.5 19L52.5 106H85L99 70C101 65.5 104 62 107.5 62H149L165 38H115.5C113 38 112 35.5 113 32.5L114.5 29C116 26.5 118.5 25.5 122.5 25.5H176.5L191.5 0Z" fill="#FF0000"/>
<path d="M191.5 0H110C98 0 92.5 8 87.5 19L52.5 106H85L99 70C101 65.5 104 62 107.5 62H149L165 38H115.5C113 38 112 35.5 113 32.5L114.5 29C116 26.5 118.5 25.5 122.5 25.5H176.5L191.5 0Z" fill="#FF0000"/>
<path d="M17 14.5L21 0H73.5C79.5 0 83.5 7 82 11L75.5 28C71 38 65.7122 40.5979 56.5 42.5L83 75.5H63.5L36.5 42.5H26C25 42.5 24.1056 44 23.5 45.5C18.5999 57.6378 13.8004 60.8354 0 60L9.5 32.5C11 29.5 13.5 27.5 16 27.5H51C54 27.5 56.5 27 58.5 24L61 18.5C62 16.5 61 14.5 59 14.5H17Z" fill="white"/>
<path d="M111.894 94.538C111.894 93.922 111.578 93.614 110.948 93.614H109.716V98.74H110.948C111.578 98.74 111.894 98.432 111.894 97.816V94.538ZM106.394 90.754H111.366C112.554 90.754 113.485 91.04 114.16 91.612C114.849 92.184 115.194 93.0273 115.194 94.142V98.212C115.194 99.3267 114.849 100.17 114.16 100.742C113.485 101.314 112.554 101.6 111.366 101.6H109.716V106H106.394V90.754ZM118.928 90.754H122.272V103.228H126.342V106H118.928V90.754ZM136.147 106L135.509 102.48H132.495L131.901 106H128.755L131.747 90.754H136.345L139.293 106H136.147ZM132.957 99.686H135.025L133.969 93.79L132.957 99.686ZM149.067 90.754H152.323V106H149.155C146.984 100.456 145.73 97.112 145.393 95.968C145.701 97.1267 145.855 99.1213 145.855 101.952V106H142.599V90.754H145.855L147.857 95.858C148.708 98.0433 149.28 99.7007 149.573 100.83C149.236 99.4073 149.067 97.3247 149.067 94.582V90.754ZM162.976 90.754H166.232V106H163.064C160.893 100.456 159.639 97.112 159.302 95.968C159.61 97.1267 159.764 99.1213 159.764 101.952V106H156.508V90.754H159.764L161.766 95.858C162.617 98.0433 163.189 99.7007 163.482 100.83C163.145 99.4073 162.976 97.3247 162.976 94.582V90.754ZM170.417 90.754H178.139V93.614H173.717V96.848H177.545V99.708H173.717V103.14H178.139V106H170.417V90.754ZM185.177 100.5V106H181.877V90.754H186.849C188.051 90.754 188.99 91.04 189.665 91.612C190.339 92.184 190.677 93.02 190.677 94.12V96.936C190.677 98.696 190.075 99.796 188.873 100.236L191.271 106H187.641L185.595 100.5H185.177ZM185.177 93.57V97.882H186.475C186.812 97.882 187.047 97.8087 187.179 97.662C187.311 97.5153 187.377 97.2587 187.377 96.892V94.406C187.377 94.0833 187.303 93.8633 187.157 93.746C187.01 93.6287 186.783 93.57 186.475 93.57H185.177Z" fill="white"/>
</svg>
