<svg width="45" height="43" viewBox="0 0 45 43" fill="none" xmlns="http://www.w3.org/2000/svg">
<path d="M22.9414 0.524831L44.7153 16.3445L36.3984 41.9413H9.48439L1.16749 16.3445L22.9414 0.524831Z" fill="url(#paint0_linear_95_2346)" stroke="url(#paint1_linear_95_2346)" stroke-width="0.384643"/>
<path d="M14.7504 35V14.8601H22.6962C24.2238 14.8601 25.5251 15.1519 26.6003 15.7354C27.6755 16.3123 28.495 17.1154 29.0588 18.1447C29.6292 19.1674 29.9143 20.3475 29.9143 21.6849C29.9143 23.0223 29.6259 24.2024 29.049 25.2251C28.472 26.2478 27.6361 27.0444 26.5413 27.6147C25.453 28.1851 24.1353 28.4703 22.5881 28.4703H17.5236V25.0579H21.8997C22.7192 25.0579 23.3944 24.917 23.9255 24.6351C24.4631 24.3466 24.863 23.95 25.1252 23.4451C25.394 22.9338 25.5284 22.347 25.5284 21.6849C25.5284 21.0162 25.394 20.4327 25.1252 19.9344C24.863 19.4296 24.4631 19.0396 23.9255 18.7642C23.3879 18.4823 22.7061 18.3413 21.88 18.3413H19.0085V35H14.7504Z" fill="white"/>
<defs>
<linearGradient id="paint0_linear_95_2346" x1="37.5219" y1="6.04351" x2="7.85063" y2="42.1336" gradientUnits="userSpaceOnUse">
<stop offset="0.507849" stop-color="#C5C3C4"/>
<stop offset="0.537707" stop-color="#303030"/>
<stop offset="0.695758" stop-color="#838383"/>
</linearGradient>
<linearGradient id="paint1_linear_95_2346" x1="0.492793" y1="16.6004" x2="44.9414" y2="26.1976" gradientUnits="userSpaceOnUse">
<stop stop-color="white"/>
<stop offset="0.0736894" stop-color="#6C6C6C"/>
<stop offset="1" stop-color="#767676"/>
</linearGradient>
</defs>
</svg>
