<svg width="45" height="44" viewBox="0 0 45 44" fill="none" xmlns="http://www.w3.org/2000/svg">
<path d="M22.9922 1.02092L44.7661 16.8406L36.4492 42.4374H9.53517L1.21827 16.8406L22.9922 1.02092Z" fill="url(#paint0_linear_95_2344)" stroke="url(#paint1_linear_95_2344)" stroke-width="0.384643"/>
<path d="M15.7426 35V14.8601H23.8064C25.2881 14.8601 26.5239 15.0798 27.5138 15.519C28.5038 15.9583 29.2479 16.568 29.7461 17.3481C30.2444 18.1217 30.4935 19.0133 30.4935 20.0229C30.4935 20.8097 30.3362 21.5013 30.0215 22.0979C29.7068 22.6879 29.2741 23.1731 28.7234 23.5533C28.1793 23.927 27.5564 24.1925 26.855 24.3499V24.5465C27.622 24.5793 28.3399 24.7957 29.0086 25.1956C29.6838 25.5955 30.2313 26.156 30.6508 26.8772C31.0704 27.5918 31.2802 28.4441 31.2802 29.434C31.2802 30.5026 31.0147 31.4565 30.4837 32.2957C29.9592 33.1283 29.1823 33.7872 28.153 34.2723C27.1237 34.7574 25.8552 35 24.3473 35H15.7426ZM20.0007 31.5188H23.4721C24.6587 31.5188 25.5241 31.2926 26.0682 30.8403C26.6124 30.3813 26.8845 29.7716 26.8845 29.0111C26.8845 28.4539 26.7501 27.9622 26.4813 27.5361C26.2125 27.1099 25.8289 26.7756 25.3307 26.533C24.839 26.2904 24.2522 26.1691 23.5704 26.1691H20.0007V31.5188ZM20.0007 23.2878H23.1574C23.7409 23.2878 24.2588 23.1862 24.7112 22.983C25.1701 22.7732 25.5306 22.4781 25.7929 22.0979C26.0617 21.7177 26.1961 21.262 26.1961 20.731C26.1961 20.0033 25.9371 19.4165 25.4192 18.9707C24.9078 18.5249 24.1801 18.302 23.2361 18.302H20.0007V23.2878Z" fill="white"/>
<defs>
<linearGradient id="paint0_linear_95_2344" x1="37.5727" y1="6.5396" x2="7.90141" y2="42.6297" gradientUnits="userSpaceOnUse">
<stop offset="0.507849" stop-color="#BF9074"/>
<stop offset="0.537707" stop-color="#5D3B15"/>
<stop offset="0.695758" stop-color="#352211"/>
</linearGradient>
<linearGradient id="paint1_linear_95_2344" x1="0.543574" y1="17.0965" x2="44.9922" y2="26.6937" gradientUnits="userSpaceOnUse">
<stop stop-color="#E2A075"/>
<stop offset="0.0736894" stop-color="#583A1E"/>
<stop offset="1" stop-color="#8E5834"/>
</linearGradient>
</defs>
</svg>
