<svg width="45" height="43" viewBox="0 0 45 43" fill="none" xmlns="http://www.w3.org/2000/svg">
<path d="M22.9492 0.526784L44.7231 16.3465L36.4062 41.9432H9.4922L1.17531 16.3465L22.9492 0.526784Z" fill="url(#paint0_linear_95_2348)" stroke="url(#paint1_linear_95_2348)" stroke-width="0.384643"/>
<path d="M32.2579 24.9301C32.2579 27.1263 31.8416 28.9948 31.009 30.5354C30.1829 32.076 29.0553 33.2528 27.6261 34.0658C26.2035 34.8722 24.6038 35.2753 22.8271 35.2753C21.0374 35.2753 19.4312 34.8689 18.0085 34.0559C16.5859 33.243 15.4615 32.0662 14.6355 30.5256C13.8094 28.9849 13.3964 27.1198 13.3964 24.9301C13.3964 22.7338 13.8094 20.8654 14.6355 19.3247C15.4615 17.7841 16.5859 16.6106 18.0085 15.8042C19.4312 14.9913 21.0374 14.5848 22.8271 14.5848C24.6038 14.5848 26.2035 14.9913 27.6261 15.8042C29.0553 16.6106 30.1829 17.7841 31.009 19.3247C31.8416 20.8654 32.2579 22.7338 32.2579 24.9301ZM27.9408 24.9301C27.9408 23.5074 27.7277 22.3077 27.3016 21.3309C26.882 20.354 26.2887 19.6132 25.5216 19.1084C24.7546 18.6036 23.8564 18.3512 22.8271 18.3512C21.7979 18.3512 20.8997 18.6036 20.1326 19.1084C19.3656 19.6132 18.769 20.354 18.3429 21.3309C17.9233 22.3077 17.7135 23.5074 17.7135 24.9301C17.7135 26.3527 17.9233 27.5524 18.3429 28.5293C18.769 29.5061 19.3656 30.2469 20.1326 30.7517C20.8997 31.2566 21.7979 31.509 22.8271 31.509C23.8564 31.509 24.7546 31.2566 25.5216 30.7517C26.2887 30.2469 26.882 29.5061 27.3016 28.5293C27.7277 27.5524 27.9408 26.3527 27.9408 24.9301Z" fill="white"/>
<defs>
<linearGradient id="paint0_linear_95_2348" x1="37.5297" y1="6.04546" x2="7.85844" y2="42.1356" gradientUnits="userSpaceOnUse">
<stop stop-color="#EFEEEC"/>
<stop offset="0.492592" stop-color="#A8732E"/>
<stop offset="0.534507" stop-color="#4C3611"/>
</linearGradient>
<linearGradient id="paint1_linear_95_2348" x1="0.500606" y1="16.6024" x2="44.9492" y2="26.1995" gradientUnits="userSpaceOnUse">
<stop stop-color="#AE7F37"/>
<stop offset="0.0736894" stop-color="#4E4027"/>
<stop offset="1" stop-color="#90672F"/>
</linearGradient>
</defs>
</svg>
